# xmcd
#
# Track frame offsets:
#	150
#	16918
#	39503
#	55143
#	73692
#	92143
#	112676
#	130263
#	147824
#	166119
#	186302
#	205584
#	223979
#	240093
#	261682
#	281597
#	298206
#
# Disc length: 4276 seconds
#
# Revision: 1
# Processed by: cddbd v1.5.2PL0 Copyright (c) Steve Scherf et al.
# Submitted via: audiograbber 1.83.01
#
DISCID=fd10b211
DTITLE=Country Karaoke Classics Duets - CKC-43
DYEAR=1900
DGENRE=Karaoke
TTITLE0=Duet Tim McGraw Faith Hill - It's Your Love
TTITLE1=Duet Kid Rock Sheryl Crow - Picture
TTITLE2=Duet Toby Keith Willy Nelson - Beer For My Horses
TTITLE3=Duet Clint Black Wynonna - A Bad Goodbye
TTITLE4=Duet Kenny Rogers Sheena Easton - We've Got Tonight
TTITLE5=Duet Willie Nelson Lee Ann Womack - Mendocino County Line
TTITLE6=Duet Bropk and Dunn Reba McEntire - If You See Him/Her
TTITLE7=Duet Willie Nelson Julio Iglesias - To All The Girls I've Loved Before
TTITLE8=Duet Alan Jackson Jimmy Buffet - Five O'clock Somewhere
TTITLE9=Duet Brad Paisley Alison Krauss - Whiskey Lullaby
TTITLE10=Duet Tim McGraw Faith Hill - Let's Make Love
TTITLE11=Duet Eddie Rabbitt Crystal Gayle - You and I
TTITLE12=Duet Jimmy Buffet Martina McBride - Trip Around The Sun
TTITLE13=Duet Steve Wariner Anita Cochran - What If I Said
TTITLE14=Duet Kenny Rogers Dolly Parton - Islands In the Stream
TTITLE15=Duet Kenny Chesney Uncle Kracker - When The Sun Goes Down
TTITLE16=Duet Shania Twain Brian White - From This Moment On
EXTD=
EXTT0=
EXTT1=
EXTT2=
EXTT3=
EXTT4=
EXTT5=
EXTT6=
EXTT7=
EXTT8=
EXTT9=
EXTT10=
EXTT11=
EXTT12=
EXTT13=
EXTT14=
EXTT15=
EXTT16=
PLAYORDER=
